# xmcd
#
# Track frame offsets: 
#        150
#        674
#        17597
#        31764
#        46103
#        60861
#        79599
#        96288
#        115633
#        134409
#        147162
#        163939
#        182515
#        199983
#        214416
#        236245
#        260297
#        269948
#        287723
#        303478
#        320341
#
# Disc length: 4436 seconds
#
# Revision: 0
# Processed by: cddbd v1.5.2PL0 Copyright (c) Steve Scherf et al.
# Submitted via: ExactAudioCopy v0.99pb4
#
DISCID=28115215
DTITLE=Various Artist - prevue promo 1044A-2
DYEAR=2000
DGENRE=pop
TTITLE0=blank - data
TTITLE1=Kenny Rogers - Buv Me A Rose 
TTITLE2=Mytown  - Lifetime Affair 
TTITLE3=Don Philip - You Make Me Love You ... More
TTITLE4=LFO - West Side Story, 
TTITLE5=Norman Brown Feat.  Phajja - You Make Me Feel Brand New 
TTITLE6=Isaac  Hayes - Theme From Shaft 
TTITLE7=Janet Jackson - Doesn't Really Matter 
TTITLE8=Pink - Most Girls
TTITLE9=Jay-Z - Big Pimpin' 
TTITLE10=The Cult - Painted on My Heart 
TTITLE11=Patti Smith - Lo And Beholden
TTITLE12=Getaway People - Six Packs
TTITLE13=Great Big Sea - Consequence Free 
TTITLE14=Great White - In The Lightt (Live) 
TTITLE15=Red Hot Chili Peppers - Californication 
TTITLE16=The Suicide  Machines - Permanent Holiday
TTITLE17=Isle Of Q - Little Scene 
TTITLE18=Reveillle - Flesh And Blood 
TTITLE19=Project 86 - One-Armed Man (play On) 
TTITLE20=Hair Of The Dog - Rise
EXTD=
EXTT0=
EXTT1=
EXTT2=
EXTT3=
EXTT4=
EXTT5=
EXTT6=
EXTT7=
EXTT8=
EXTT9=
EXTT10=
EXTT11=
EXTT12=
EXTT13=
EXTT14=
EXTT15=
EXTT16=
EXTT17=
EXTT18=
EXTT19=
EXTT20=
PLAYORDER=
